<svg width="24" height="24" viewBox="0 0 24 24" fill="none" xmlns="http://www.w3.org/2000/svg">
<path fill-rule="evenodd" clip-rule="evenodd" d="M21 5H3V10H21V5ZM3 14L3 12H21V14H3ZM3 3C1.89543 3 1 3.89543 1 5V14C1 15.1046 1.89543 16 3 16H21C22.1046 16 23 15.1046 23 14V5C23 3.89543 22.1046 3 21 3H3ZM5 6C4.44772 6 4 6.44772 4 7C4 7.55228 4.44772 8 5 8H7C7.55228 8 8 7.55228 8 7C8 6.44772 7.55228 6 7 6H5ZM10 22C9.44772 22 9 21.5523 9 21V19C9 18.4477 9.44771 18 10 18C10.5523 18 11 18.4477 11 19V21C11 21.5523 10.5523 22 10 22ZM13 21C13 21.5523 13.4477 22 14 22C14.5523 22 15 21.5523 15 21V19C15 18.4477 14.5523 18 14 18C13.4477 18 13 18.4477 13 19V21ZM18 22C17.4477 22 17 21.5523 17 21V19C17 18.4477 17.4477 18 18 18C18.5523 18 19 18.4477 19 19V21C19 21.5523 18.5523 22 18 22ZM5 21C5 21.5523 5.44772 22 6 22C6.55228 22 7 21.5523 7 21V19C7 18.4477 6.55228 18 6 18C5.44772 18 5 18.4477 5 19L5 21Z" fill="#202020"/>
</svg>
