<svg width="24" height="24" viewBox="0 0 24 24" fill="none" xmlns="http://www.w3.org/2000/svg">
<path fill-rule="evenodd" clip-rule="evenodd" d="M8.46397 10.1272L4.24516 5.90843C3.78602 5.44929 3.78602 4.70487 4.24516 4.24573C4.70431 3.78658 5.44873 3.78658 5.90787 4.24573L10.1268 8.46466C9.42004 8.83974 8.83915 9.42054 8.46397 10.1272ZM13.8721 8.46486C14.5788 8.84001 15.1596 9.42088 15.5347 10.1276L19.7538 5.9086C20.2129 5.44946 20.2129 4.70504 19.7538 4.24589C19.2946 3.78675 18.5502 3.78675 18.0911 4.24589L13.8721 8.46486ZM15.5345 13.8732C15.1594 14.5799 14.5785 15.1607 13.8717 15.5358L18.0906 19.7547C18.5498 20.2139 19.2942 20.2139 19.7534 19.7547C20.2125 19.2956 20.2125 18.5512 19.7534 18.092L15.5345 13.8732ZM10.1264 15.5356L5.90746 19.7546C5.44831 20.2137 4.70389 20.2137 4.24475 19.7546C3.7856 19.2954 3.7856 18.551 4.24475 18.0919L8.46377 13.8728C8.83888 14.5796 9.4197 15.1605 10.1264 15.5356ZM7.32167 21.1688L11.999 16.4915L16.6764 21.169C17.9166 22.4091 19.9274 22.4091 21.1676 21.169C22.4078 19.9288 22.4078 17.918 21.1676 16.6778L16.4903 12.0005L21.168 7.32282C22.4082 6.08262 22.4082 4.07187 21.168 2.83168C19.9278 1.59149 17.917 1.59149 16.6768 2.83168L11.9995 7.50897L7.32209 2.83151C6.08189 1.59132 4.07114 1.59132 2.83095 2.83151C1.59076 4.0717 1.59076 6.08246 2.83095 7.32265L7.50824 11.9999L2.83054 16.6776C1.59034 17.9178 1.59034 19.9286 2.83054 21.1688C4.07073 22.409 6.08148 22.409 7.32167 21.1688ZM9.99926 12.0002C9.99926 10.8957 10.8947 10.0002 11.9993 10.0002C13.1038 10.0002 13.9993 10.8957 13.9993 12.0002C13.9993 13.1048 13.1038 14.0002 11.9993 14.0002C10.8947 14.0002 9.99926 13.1048 9.99926 12.0002Z" fill="#202020"/>
</svg>
