<svg width="16" height="16" viewBox="0 0 16 16" fill="none" xmlns="http://www.w3.org/2000/svg">
<path fill-rule="evenodd" clip-rule="evenodd" d="M1.57736 8.5624C1.42794 8.33103 1.31382 8.13758 1.23624 8.00033C1.31382 7.86307 1.42794 7.66962 1.57736 7.43825C1.8886 6.95634 2.34975 6.31503 2.94919 5.67563C4.15718 4.38711 5.86751 3.16699 8.00109 3.16699C10.1347 3.16699 11.845 4.38711 13.053 5.67563C13.6524 6.31503 14.1136 6.95634 14.4248 7.43825C14.5742 7.66961 14.6884 7.86306 14.7659 8.00032C14.6884 8.13758 14.5742 8.33104 14.4248 8.5624C14.1136 9.04431 13.6524 9.68562 13.053 10.325C11.845 11.6135 10.1347 12.8337 8.00109 12.8337C5.86751 12.8337 4.15718 11.6135 2.94919 10.325C2.34975 9.68562 1.8886 9.04431 1.57736 8.5624ZM15.3344 8.00033C15.7816 7.77672 15.7815 7.77655 15.7815 7.77635L15.3344 8.00033ZM15.7812 8.22479L15.7805 8.22613L15.7784 8.23027L15.7713 8.24424C15.7652 8.25604 15.7566 8.27276 15.7453 8.29408C15.7227 8.33672 15.6897 8.39777 15.6465 8.47462C15.5601 8.62825 15.4325 8.8454 15.2649 9.10492C14.9303 9.623 14.4331 10.315 13.7825 11.009C12.4905 12.3871 10.5342 13.8337 8.00109 13.8337C5.468 13.8337 3.51166 12.3871 2.21965 11.009C1.56909 10.315 1.07191 9.623 0.737318 9.10492C0.569711 8.8454 0.442083 8.62825 0.355665 8.47462C0.312437 8.39777 0.279464 8.33672 0.256903 8.29408C0.245621 8.27276 0.236937 8.25604 0.230872 8.24424L0.223737 8.23027L0.221646 8.22613L0.220541 8.22393L0.667755 8.00033L0.22097 7.77586L0.221646 7.77452L0.223737 7.77038L0.230872 7.75641C0.236937 7.74461 0.245621 7.72789 0.256903 7.70657C0.279464 7.66394 0.312437 7.60288 0.355665 7.52603C0.442083 7.3724 0.569711 7.15525 0.737318 6.89573C1.07191 6.37765 1.56909 5.68562 2.21965 4.99169C3.51166 3.61355 5.468 2.16699 8.00109 2.16699C10.5342 2.16699 12.4905 3.61355 13.7825 4.99169C14.4331 5.68562 14.9303 6.37765 15.2649 6.89573C15.4325 7.15525 15.5601 7.3724 15.6465 7.52603C15.6897 7.60288 15.7227 7.66394 15.7453 7.70657C15.7566 7.72789 15.7652 7.74461 15.7713 7.75641L15.7784 7.77038L15.7805 7.77452L15.7815 7.77635C15.8518 7.91712 15.8516 8.08402 15.7812 8.22479ZM0.22097 7.77586C0.220873 7.77606 0.220541 7.77672 0.667755 8.00033C0.220541 8.22393 0.220444 8.22374 0.220541 8.22393C0.150159 8.08317 0.150588 7.91663 0.22097 7.77586ZM15.3344 8.00033L15.7812 8.22479C15.7813 8.2246 15.7816 8.22393 15.3344 8.00033ZM6.50098 8.00037C6.50098 7.17194 7.17255 6.50037 8.00098 6.50037C8.8294 6.50037 9.50098 7.17194 9.50098 8.00037C9.50098 8.82879 8.8294 9.50037 8.00098 9.50037C7.17255 9.50037 6.50098 8.82879 6.50098 8.00037ZM8.00098 5.50037C6.62027 5.50037 5.50098 6.61965 5.50098 8.00037C5.50098 9.38108 6.62027 10.5004 8.00098 10.5004C9.38169 10.5004 10.501 9.38108 10.501 8.00037C10.501 6.61965 9.38169 5.50037 8.00098 5.50037Z" fill="#202020"/>
</svg>
