<svg width="16" height="16" viewBox="0 0 16 16" fill="none" xmlns="http://www.w3.org/2000/svg">
<path fill-rule="evenodd" clip-rule="evenodd" d="M1.02152 0.313439C0.82626 0.118177 0.509677 0.118177 0.314415 0.313439C0.119153 0.508701 0.119153 0.825283 0.314415 1.02055L3.29283 3.99896C2.04162 5.04578 1.00066 6.32336 0.227655 7.76393C0.150838 7.90708 0.148793 8.07949 0.221449 8.22481L0.222125 8.22615L0.224216 8.23029L0.23135 8.24426C0.237416 8.25605 0.2461 8.27278 0.257382 8.2941C0.279943 8.33673 0.312915 8.39779 0.356143 8.47464C0.442561 8.62827 0.570189 8.84542 0.737797 9.10494C1.07239 9.62302 1.56957 10.315 2.22013 11.009C3.51214 12.3871 5.46848 13.8337 8.00157 13.8337L8.00974 13.8336C9.40242 13.8108 10.7555 13.3855 11.9074 12.6135L14.9811 15.6872C15.1763 15.8825 15.4929 15.8825 15.6882 15.6872C15.8835 15.4919 15.8835 15.1754 15.6882 14.9801L12.3243 11.6163C12.3213 11.6131 12.3182 11.6099 12.3151 11.6068L9.77041 9.06208L9.76694 9.05861L6.94329 6.23496L6.93984 6.2315L4.39512 3.68679C4.39197 3.68364 4.38879 3.68054 4.38558 3.6775L1.02152 0.313439ZM9.38936 10.0955L11.1843 11.8905C10.2305 12.4865 9.12925 12.8144 7.99748 12.8337C5.86581 12.8321 4.15689 11.6127 2.94967 10.325C2.35023 9.68564 1.88908 9.04433 1.57784 8.56241C1.4292 8.33227 1.3155 8.13963 1.23795 8.00251C1.95034 6.74421 2.88773 5.62796 4.00296 4.70909L5.90642 6.61255C5.81384 6.74426 5.73396 6.88494 5.6681 7.03274C5.53146 7.33941 5.45799 7.67045 5.45207 8.00613C5.44614 8.3418 5.50789 8.67523 5.63363 8.98653C5.75937 9.29782 5.94651 9.5806 6.18391 9.818C6.42131 10.0554 6.70409 10.2425 7.01538 10.3683C7.32667 10.494 7.6601 10.5558 7.99578 10.5498C8.33146 10.5439 8.6625 10.4704 8.96916 10.3338C9.11697 10.268 9.25764 10.1881 9.38936 10.0955ZM6.63166 7.3378L8.66411 9.37024C8.63083 9.38821 8.59683 9.40493 8.56217 9.42038C8.37817 9.50236 8.17954 9.54644 7.97814 9.55C7.77673 9.55355 7.57668 9.5165 7.3899 9.44106C7.20312 9.36562 7.03345 9.25333 6.89102 9.11089C6.74858 8.96845 6.63629 8.79879 6.56085 8.61201C6.48541 8.42523 6.44836 8.22517 6.45191 8.02377C6.45546 7.82236 6.49955 7.62374 6.58153 7.43974C6.59697 7.40508 6.6137 7.37108 6.63166 7.3378ZM0.668233 8.00034L0.221449 8.22481C0.221352 8.22461 0.22102 8.22395 0.668233 8.00034ZM6.71552 3.31385C7.13667 3.21527 7.56786 3.16599 8.00039 3.16701L8.00157 3.16701C10.1351 3.16701 11.8455 4.38712 13.0535 5.67565C13.6529 6.31504 14.1141 6.95635 14.4253 7.43827C14.5741 7.66867 14.6879 7.86148 14.7654 7.99863C14.4048 8.6382 13.9853 9.24298 13.5123 9.80509C13.3345 10.0164 13.3617 10.3318 13.573 10.5096C13.7843 10.6874 14.0997 10.6602 14.2775 10.4489C14.8526 9.76546 15.3548 9.02381 15.7759 8.23605C15.8523 8.09302 15.8542 7.92094 15.7817 7.77588L15.781 7.77453L15.7789 7.7704L15.7718 7.75643C15.7657 7.74463 15.757 7.72791 15.7458 7.70659C15.7232 7.66395 15.6902 7.60289 15.647 7.52604C15.5606 7.37241 15.4329 7.15527 15.2653 6.89575C14.9307 6.37767 14.4336 5.68564 13.783 4.9917C12.4911 3.61367 10.535 2.16723 8.00215 2.16701C7.4923 2.16586 6.98404 2.22397 6.48761 2.34017C6.21873 2.4031 6.05179 2.67209 6.11473 2.94097C6.17766 3.20984 6.44665 3.37679 6.71552 3.31385ZM15.3349 8.00034L14.8939 7.76464C14.852 7.84314 14.8091 7.92114 14.7654 7.99863L14.7754 8.01631C14.8142 8.08529 14.8431 8.13882 14.8619 8.1743C14.8713 8.19205 14.8781 8.20527 14.8824 8.21366L14.887 8.22256L14.8878 8.22419C14.8878 8.22408 14.8877 8.22395 15.3349 8.00034ZM15.7817 7.77588C15.7818 7.77607 15.7821 7.77674 15.3349 8.00034L15.7817 7.77588Z" fill="#202020"/>
</svg>
