<svg width="24" height="24" viewBox="0 0 24 24" fill="none" xmlns="http://www.w3.org/2000/svg">
<path fill-rule="evenodd" clip-rule="evenodd" d="M3 12C3 16.9706 7.02944 21 12 21C16.9706 21 21 16.9706 21 12C21 7.02944 16.9706 3 12 3C7.02944 3 3 7.02944 3 12ZM12 1C5.92487 1 1 5.92487 1 12C1 18.0751 5.92487 23 12 23C18.0751 23 23 18.0751 23 12C23 5.92487 18.0751 1 12 1ZM20 12C20 12.5523 19.5523 13 19 13C18.4477 13 18 12.5523 18 12C18 11.4477 18.4477 11 19 11C19.5523 11 20 11.4477 20 12ZM17 8C17.5523 8 18 7.55228 18 7C18 6.44772 17.5523 6 17 6C16.4477 6 16 6.44772 16 7C16 7.55228 16.4477 8 17 8ZM13 5C13 5.55228 12.5523 6 12 6C11.4477 6 11 5.55228 11 5C11 4.44772 11.4477 4 12 4C12.5523 4 13 4.44772 13 5ZM10.9142 10.9142L11.9999 9.82848L13.0858 10.9144C13.6854 11.5141 13.6853 12.4862 13.0857 13.0858C12.4861 13.6854 11.5139 13.6855 10.9143 13.0858C10.3146 12.4861 10.3146 11.5138 10.9142 10.9142ZM11.7619 7.23809C11.8934 7.10659 12.1066 7.1066 12.2381 7.23811L14.5001 9.50029C15.8806 10.881 15.8806 13.1194 14.5 14.5C13.1193 15.8807 10.8807 15.8807 9.50004 14.5C8.11933 13.1193 8.1193 10.8807 9.50001 9.49999L11.7619 7.23809Z" fill="#202020"/>
</svg>
