<svg width="24" height="24" viewBox="0 0 24 24" fill="none" xmlns="http://www.w3.org/2000/svg">
<path fill-rule="evenodd" clip-rule="evenodd" d="M19 3C19 2.44772 18.5523 2 18 2C17.4477 2 17 2.44772 17 3V12.083C17.3252 12.0284 17.6593 12 18 12C18.3407 12 18.6748 12.0284 19 12.083V3Z" fill="#202020"/>
<path fill-rule="evenodd" clip-rule="evenodd" d="M18 16C16.8954 16 16 16.8954 16 18C16 19.1046 16.8954 20 18 20C19.1046 20 20 19.1046 20 18C20 16.8954 19.1046 16 18 16ZM14 18C14 15.7909 15.7909 14 18 14C20.2091 14 22 15.7909 22 18C22 20.2091 20.2091 22 18 22C15.7909 22 14 20.2091 14 18Z" fill="#202020"/>
<path fill-rule="evenodd" clip-rule="evenodd" d="M7 11.917C6.67479 11.9716 6.34071 12 6 12C5.65929 12 5.32521 11.9716 5 11.917V21C5 21.5522 5.44772 22 6 22C6.55229 22 7 21.5522 7 21L7 11.917Z" fill="#202020"/>
<path fill-rule="evenodd" clip-rule="evenodd" d="M6 4C4.89543 4 4 4.89543 4 6C4 7.10457 4.89543 8 6 8C7.10457 8 8 7.10457 8 6C8 4.89543 7.10457 4 6 4ZM2 6C2 3.79086 3.79086 2 6 2C8.20914 2 10 3.79086 10 6C10 8.20914 8.20914 10 6 10C3.79086 10 2 8.20914 2 6Z" fill="#202020"/>
</svg>
