<svg width="24" height="24" viewBox="0 0 24 24" fill="none" xmlns="http://www.w3.org/2000/svg">
<path fill-rule="evenodd" clip-rule="evenodd" d="M13 4H19V18H17H13L13 4ZM19 20H18V21C18 21.5523 17.5523 22 17 22C16.4477 22 16 21.5523 16 21V20H8V21C8 21.5523 7.55228 22 7 22C6.44772 22 6 21.5523 6 21V20H5C3.89543 20 3 19.1046 3 18V4C3 2.89543 3.89543 2 5 2H19C20.1046 2 21 2.89543 21 4V18C21 19.1046 20.1046 20 19 20ZM5 18H7H11L11 4H5L5 18ZM16 11C16 11.5523 15.5523 12 15 12C14.4477 12 14 11.5523 14 11C14 10.4477 14.4477 10 15 10C15.5523 10 16 10.4477 16 11ZM9 12C9.55228 12 10 11.5523 10 11C10 10.4477 9.55228 10 9 10C8.44772 10 8 10.4477 8 11C8 11.5523 8.44772 12 9 12Z" fill="#202020"/>
</svg>
