<svg width="16" height="16" viewBox="0 0 16 16" fill="none" xmlns="http://www.w3.org/2000/svg">
<path fill-rule="evenodd" clip-rule="evenodd" d="M1.99984 7.99984C1.99984 4.68613 4.68613 1.99984 7.99984 1.99984C9.20822 1.99984 10.3313 2.35636 11.2721 2.96976C11.5805 3.17085 11.9936 3.08385 12.1946 2.77543C12.3957 2.467 12.3087 2.05396 12.0003 1.85286C10.8495 1.10252 9.47458 0.666504 7.99984 0.666504C3.94975 0.666504 0.666504 3.94975 0.666504 7.99984C0.666504 12.0499 3.94975 15.3332 7.99984 15.3332C12.0499 15.3332 15.3332 12.0499 15.3332 7.99984C15.3332 7.23449 15.2157 6.49533 14.9973 5.80007C14.887 5.4488 14.5128 5.25348 14.1615 5.3638C13.8103 5.47413 13.6149 5.84833 13.7253 6.1996C13.9035 6.76707 13.9998 7.37157 13.9998 7.99984C13.9998 11.3135 11.3135 13.9998 7.99984 13.9998C4.68613 13.9998 1.99984 11.3135 1.99984 7.99984ZM14.4709 3.80449C14.7313 3.54414 14.7313 3.12203 14.4709 2.86168C14.2106 2.60134 13.7885 2.60134 13.5281 2.86168L7.33285 9.05695L5.80425 7.52835C5.5439 7.268 5.12179 7.268 4.86144 7.52835C4.60109 7.7887 4.60109 8.21081 4.86144 8.47116L6.86144 10.4712C7.12179 10.7315 7.5439 10.7315 7.80425 10.4712L14.4709 3.80449Z" fill="#662FA0"/>
</svg>

